ik trial
nRows=4
nColumns=135

# SIMM Motion File Header:
name ik trial
datacolumns 135
datarows 4
otherdata 1
range 0.27500000 0.30000000
endheader
time	pelvis_tx	pelvis_ty	pelvis_tz	pelvis_tilt	pelvis_list	pelvis_rotation	hip_flexion_r	hip_adduction_r	hip_rotation_r	knee_angle_r	ankle_angle_r	hip_flexion_l	hip_adduction_l	hip_rotation_l	knee_angle_l	ankle_angle_l	lumbar_extension	lumbar_bending	lumbar_rotation	subtalar_angle_r	mtp_angle_r	subtalar_angle_l	mtp_angle_l	RASI_tx	RASI_ty	RASI_tz	LASI_tx	LASI_ty	LASI_tz	SACR_tx	SACR_ty	SACR_tz	RTH1_tx	RTH1_ty	RTH1_tz	RTH2_tx	RTH2_ty	RTH2_tz	RTH3_tx	RTH3_ty	RTH3_tz	RTB1_tx	RTB1_ty	RTB1_tz	RTB2_tx	RTB2_ty	RTB2_tz	RTB3_tx	RTB3_ty	RTB3_tz	RCAL_tx	RCAL_ty	RCAL_tz	RTOE_tx	RTOE_ty	RTOE_tz	RMT5_tx	RMT5_ty	RMT5_tz	LTH1_tx	LTH1_ty	LTH1_tz	LTH2_tx	LTH2_ty	LTH2_tz	LTH3_tx	LTH3_ty	LTH3_tz	LTB1_tx	LTB1_ty	LTB1_tz	LTB2_tx	LTB2_ty	LTB2_tz	LTB3_tx	LTB3_ty	LTB3_tz	LCAL_tx	LCAL_ty	LCAL_tz	LTOE_tx	LTOE_ty	LTOE_tz	LMT5_tx	LMT5_ty	LMT5_tz	LPSI_tx	LPSI_ty	LPSI_tz	RPSI_tx	RPSI_ty	RPSI_tz	RACR_tx	RACR_ty	RACR_tz	LACR_tx	LACR_ty	LACR_tz	RElbow_tx	RElbow_ty	RElbow_tz	LElbow_tx	LElbow_ty	LElbow_tz	RWrist_tx	RWrist_ty	RWrist_tz	LWrist_tx	LWrist_ty	LWrist_tz	C7_tx	C7_ty	C7_tz	CLAV_tx	CLAV_ty	CLAV_tz	ground_force_vx	ground_force_vy	ground_force_vz	ground_force_px	ground_force_py	ground_force_pz	ground_torque_x	ground_torque_y	ground_torque_z	ground_force_vx	ground_force_vy	ground_force_vz	ground_force_px	ground_force_py	ground_force_pz	ground_torque_x	ground_torque_y	ground_torque_z
      0.27500000	     -1.53013250	      1.02856360	     -0.18793812	     18.86782353	     -1.40850462	     -2.62134674	    -35.19818736	      0.21631262	      5.94102125	      1.63779860	      2.35851823	      3.62130950	     -3.92426705	     -4.21223660	    -23.19423626	      2.83564855	    -29.92074411	      1.89270187	      6.49661590	      0.00000000	      0.00000000	      0.00000000	      0.00000000	     -1.51157354	      1.04849954	     -0.07108537	     -1.51332493	      1.04187798	     -0.30004174	     -1.69596482	      1.07431747	     -0.19108239	     -1.59316595	      0.86766985	     -0.01066697	     -1.65042479	      0.62047831	     -0.03230609	     -1.54827596	      0.74514459	     -0.06436716	     -1.69577368	      0.44152353	     -0.03588738	     -1.78949557	      0.18397759	     -0.07885851	     -1.73018897	      0.28228558	     -0.07058685	     -1.88684445	      0.09122252	     -0.13354544	     -1.66789912	      0.06577048	     -0.14213722	     -1.71903451	      0.03927122	     -0.06036087	     -1.51672684	      0.85205946	     -0.37579935	     -1.44074045	      0.64773590	     -0.36284369	     -1.42298689	      0.79131178	     -0.35918197	     -1.39985690	      0.44892992	     -0.36642328	     -1.41915158	      0.19003871	     -0.33041179	     -1.37928820	      0.33947298	     -0.33981886	     -1.47491941	      0.08012372	     -0.26479667	     -1.26221795	      0.10135607	     -0.31085023	     -1.32516511	      0.06089074	     -0.37641452	     -1.69553754	      1.07747086	     -0.23992073	     -1.69639213	      1.07116406	     -0.14224404	     -1.58045323	      1.50490536	     -0.00580410	     -1.60199899	      1.51974552	     -0.34954651	     -1.52151051	      1.15048716	      0.09492841	     -1.71663792	      1.17846158	     -0.41874549	     -1.30332836	      0.98735534	      0.06667274	     -1.76601361	      0.92294317	     -0.47651496	     -1.66059846	      1.54530930	     -0.17448522	     -1.50854391	      1.44977013	     -0.18029560	      0.00000000	      0.00000000	      0.00000000	      0.00000000	      0.00000000	      0.00000000	      0.00000000	      0.00000000	      0.00000000	      0.00000000	      0.00000000	      0.00000000	      0.00000000	      0.00000000	      0.00000000	      0.00000000	      0.00000000	      0.00000000
      0.28333300	     -1.51556843	      1.02582500	     -0.18772003	     18.50679972	     -1.60541899	     -3.12474437	    -35.77178418	      0.03336194	      6.16105607	      1.80296084	      2.47104078	      3.59489003	     -4.10580011	     -3.67052268	    -18.95083435	      2.75457666	    -29.63194944	      1.81578027	      6.90676066	      0.00000000	      0.00000000	      0.00000000	      0.00000000	     -1.49769680	      1.04568885	     -0.07108889	     -1.49764875	      1.03911036	     -0.29999602	     -1.68101225	      1.07227819	     -0.19249343	     -1.58210918	      0.86579878	     -0.01054041	     -1.64273721	      0.61936389	     -0.03191441	     -1.53875041	      0.74262214	     -0.06360539	     -1.69054400	      0.44098946	     -0.03558062	     -1.78763799	      0.18468442	     -0.07867775	     -1.72704246	      0.28208618	     -0.07045059	     -1.88615721	      0.09285652	     -0.13342565	     -1.66748699	      0.06554949	     -0.14204511	     -1.71884595	      0.03933993	     -0.06032407	     -1.50067591	      0.84989491	     -0.37629040	     -1.42601079	      0.64498280	     -0.36159956	     -1.40703493	      0.78904818	     -0.35833331	     -1.37899965	      0.44747499	     -0.36649154	     -1.38170647	      0.18739407	     -0.33344772	     -1.35186457	      0.33924697	     -0.34044450	     -1.43119505	      0.07355293	     -0.26963221	     -1.21965668	      0.10880595	     -0.31203306	     -1.27896638	      0.06532971	     -0.37905210	     -1.68016056	      1.07551033	     -0.24128174	     -1.68186398	      1.06904600	     -0.14370511	     -1.56557588	      1.50288962	     -0.00680520	     -1.58645134	      1.51691322	     -0.35068065	     -1.50148695	      1.14947728	      0.09388105	     -1.70750471	      1.17833959	     -0.41931398	     -1.27895883	      0.99305211	      0.06209378	     -1.76622486	      0.92520698	     -0.47760232	     -1.64544574	      1.54294928	     -0.17568101	     -1.49338659	      1.44716563	     -0.18110127	      0.00000000	      0.00000000	      0.00000000	      0.00000000	      0.00000000	      0.00000000	      0.00000000	      0.00000000	      0.00000000	      0.00000000	      0.00000000	      0.00000000	      0.00000000	      0.00000000	      0.00000000	      0.00000000	      0.00000000	      0.00000000
      0.29166700	     -1.50096300	      1.02285218	     -0.18745010	     18.12421672	     -1.86844505	     -3.60515372	    -36.31146795	     -0.07929026	      6.44567370	      1.92712687	      2.58616822	      3.55097140	     -4.42597466	     -3.21032983	    -14.69585931	      2.66770430	    -29.33103060	      1.80575503	      7.31582627	      0.00000000	      0.00000000	      0.00000000	      0.00000000	     -1.48377725	      1.04275311	     -0.07105274	     -1.48183431	      1.03610619	     -0.29987440	     -1.66597083	      1.06998563	     -0.19395855	     -1.57092289	      0.86383621	     -0.01044777	     -1.63484528	      0.61822241	     -0.03153158	     -1.52904493	      0.74003195	     -0.06295868	     -1.68514573	      0.44041637	     -0.03529812	     -1.78572952	      0.18546795	     -0.07852607	     -1.72382638	      0.28198601	     -0.07025955	     -1.88540289	      0.09459859	     -0.13332211	     -1.66709715	      0.06532609	     -0.14192283	     -1.71865867	      0.03940411	     -0.06029536	     -1.48485112	      0.84722998	     -0.37649524	     -1.41198956	      0.64166401	     -0.36065596	     -1.39151982	      0.78607855	     -0.35758317	     -1.35832046	      0.44634465	     -0.36669615	     -1.34472642	      0.18614134	     -0.33623917	     -1.32486507	      0.33972335	     -0.34097681	     -1.38782393	      0.06862776	     -0.27407852	     -1.17840931	      0.11768916	     -0.31278053	     -1.23397808	      0.07164863	     -0.38127998	     -1.66468422	      1.07326944	     -0.24271020	     -1.66725746	      1.06670177	     -0.14520689	     -1.55062649	      1.50068709	     -0.00788182	     -1.57078369	      1.51389265	     -0.35190637	     -1.48158447	      1.14830178	      0.09273228	     -1.69845100	      1.17821646	     -0.41988327	     -1.25517060	      0.99844585	      0.05757602	     -1.76559520	      0.92755593	     -0.47862047	     -1.63019434	      1.54038356	     -0.17697226	     -1.47808009	      1.44439648	     -0.18195406	      0.00000000	      0.00000000	      0.00000000	      0.00000000	      0.00000000	      0.00000000	      0.00000000	      0.00000000	      0.00000000	      0.00000000	      0.00000000	      0.00000000	      0.00000000	      0.00000000	      0.00000000	      0.00000000	      0.00000000	      0.00000000
      0.30000000	     -1.48630881	      1.01968107	     -0.18715231	     17.72032805	     -2.19664199	     -4.07145395	    -36.80553755	     -0.12505952	      6.77427834	      1.98862207	      2.69295282	      3.49653723	     -4.87469573	     -2.90895674	    -10.48964207	      2.53525593	    -29.01883994	      1.86060631	      7.73828208	      0.00000000	      0.00000000	      0.00000000	      0.00000000	     -1.46982177	      1.03974909	     -0.07095448	     -1.46585469	      1.03289826	     -0.29962744	     -1.65083394	      1.06743614	     -0.19546949	     -1.55962160	      0.86182062	     -0.01037958	     -1.62672147	      0.61705880	     -0.03120476	     -1.51909503	      0.73739447	     -0.06237635	     -1.67954155	      0.43982504	     -0.03507930	     -1.78373830	      0.18634851	     -0.07845050	     -1.72048426	      0.28200737	     -0.07003415	     -1.88456808	      0.09652221	     -0.13329276	     -1.66670737	      0.06509140	     -0.14179391	     -1.71846405	      0.03948648	     -0.06028278	     -1.46937798	      0.84413502	     -0.37637172	     -1.39861355	      0.63788784	     -0.36047137	     -1.37660596	      0.78233185	     -0.35690495	     -1.33775862	      0.44558388	     -0.36719149	     -1.30853289	      0.18622218	     -0.33866183	     -1.29837452	      0.34090452	     -0.34153131	     -1.34526867	      0.06536646	     -0.27793862	     -1.13883794	      0.12780239	     -0.31295733	     -1.19057521	      0.07950225	     -0.38287736	     -1.64909530	      1.07073965	     -0.24418863	     -1.65257258	      1.06413258	     -0.14675034	     -1.53558952	      1.49832437	     -0.00904372	     -1.55501071	      1.51070864	     -0.35323382	     -1.46183205	      1.14698233	      0.09149405	     -1.68943774	      1.17811206	     -0.42042470	     -1.23197732	      1.00349806	      0.05313329	     -1.76409360	      0.92993327	     -0.47958893	     -1.61483240	      1.53763991	     -0.17836922	     -1.46264796	      1.44147175	     -0.18286982	      0.00000000	      0.00000000	      0.00000000	      0.00000000	      0.00000000	      0.00000000	      0.00000000	      0.00000000	      0.00000000	      0.00000000	      0.00000000	      0.00000000	      0.00000000	      0.00000000	      0.00000000	      0.00000000	      0.00000000	      0.00000000
